<?xml version="1.0" encoding="UTF-8" standalone="no"?>
        <svg 
    viewBox="2.7099609375 -86.12723972486411 448.828125 56.97684909986411"
    width="446.1181640625"
    height="143.10408882472822"
   xmlns="http://www.w3.org/2000/svg"
   xmlns:svg="http://www.w3.org/2000/svg">
   <path d="M11.87-112.50L10.62-116.67L35.52-116.67L44.09-128.10Q44.09-128.10 46.73-125.94Q49.37-123.78 52.99-120.70Q56.62-117.63 59.55-114.92L59.55-114.92Q58.89-112.50 55.52-112.50L55.52-112.50L11.87-112.50ZM11.13-73.83L9.89-78.00L36.18-78.00L44.53-89.14Q44.53-89.14 47.09-86.98Q49.66-84.81 53.17-81.81Q56.69-78.81 59.55-76.17L59.55-76.17Q58.89-73.83 55.52-73.83L55.52-73.83L11.13-73.83ZM11.13-54.13L9.89-58.37L36.18-58.37L44.53-69.43Q44.53-69.43 47.09-67.31Q49.66-65.19 53.17-62.18Q56.69-59.18 59.55-56.54L59.55-56.54Q58.89-54.13 55.52-54.13L55.52-54.13L11.13-54.13ZM67.02-19.19L67.02-64.23L67.02-67.02L64.53-66.87L62.11-66.87L62.11-93.46L61.38-93.46L3.88-93.46L2.71-97.63L41.53-97.63L50.10-108.91Q50.10-108.91 51.93-107.41Q53.76-105.91 56.54-103.56Q59.33-101.22 62.11-98.88L62.11-98.88L62.11-107.52L80.42-100.49L84.30-100.49L84.30-112.21L60.86-112.21L59.69-116.38L120.26-116.38L129.93-128.25Q129.93-128.25 132.86-126.01Q135.79-123.78 139.82-120.63Q143.85-117.48 147.14-114.62L147.14-114.62Q146.48-112.21 142.97-112.21L142.97-112.21L119.09-112.21L119.09-100.49L122.97-100.49L130.96-108.76L147.14-96.61Q146.56-95.95 145.42-95.25Q144.29-94.56 142.38-94.19L142.38-94.19L142.38-73.83Q142.38-73.02 138.68-71.41Q134.99-69.80 130.96-69.14L130.96-69.14L142.82-60.28Q142.24-59.55 141.10-58.81Q139.97-58.08 138.13-57.71L138.13-57.71L138.13-26.88Q138.13-26.51 136.74-25.89Q135.35-25.27 133.37-24.61L133.37-24.61Q135.79-22.56 140.33-18.86Q144.87-15.16 148.54-12.01L148.54-12.01Q147.88-9.59 144.29-9.59L144.29-9.59L112.65-9.59L112.65 10.62Q112.57 11.21 108.11 12.89Q103.64 14.58 95.58 14.58L95.58 14.58L91.63 14.58L91.63-9.59L60.42-9.59L59.25-13.77L91.63-13.77L91.63-28.34L85.77-28.34L85.77-24.90Q85.77-24.10 83.39-22.74Q81.01-21.39 77.34-20.29Q73.68-19.19 69.73-19.19L69.73-19.19L67.02-19.19ZM121.95-13.77L129.42-23.58Q127.51-23.07 125.65-22.78Q123.78-22.49 122.09-22.49L122.09-22.49L118.65-22.49L118.65-28.34L112.65-28.34L112.65-13.77L121.95-13.77ZM104.08-112.21L99.32-112.21L99.32-100.49L104.08-100.49L104.08-112.21ZM38.09-3.30L38.09-34.06L27.47-34.06L27.47-3.30L38.09-3.30ZM8.72 14.14L8.72-38.23L8.72-45.92L28.05-38.23L36.77-38.23L45.12-47.24L62.40-34.20Q61.74-33.40 60.42-32.63Q59.11-31.86 56.98-31.49L56.98-31.49L56.98 5.71Q56.98 6.37 54.42 7.62Q51.86 8.86 48.23 9.92Q44.60 10.99 41.38 10.99L41.38 10.99L38.09 10.99L38.09 0.88L27.47 0.88L27.47 8.28Q27.47 9.08 25.09 10.47Q22.71 11.87 19.04 13.00Q15.38 14.14 11.43 14.14L11.43 14.14L8.72 14.14ZM124.37-79.17L124.37-96.31L119.09-96.31L119.09-79.17L124.37-79.17ZM124.37-75L79.47-75L79.47-72.14Q79.47-70.83 74.56-68.85L74.56-68.85L86.72-64.23L117.33-64.23L124.37-71.70L124.37-75ZM79.47-96.31L79.47-79.17L84.30-79.17L84.30-96.31L79.47-96.31ZM104.08-96.31L99.32-96.31L99.32-79.17L104.08-79.17L104.08-96.31ZM118.65-48.27L118.65-59.99L85.77-59.99L85.77-48.27L118.65-48.27ZM118.65-44.09L85.77-44.09L85.77-32.52L118.65-32.52L118.65-44.09ZM197.53-126.42L197.97-127.95Q214.01-129.35 224.01-127.37Q234.01-125.39 239.06-121.44Q244.12-117.48 245.14-113.01Q246.17-108.54 244.15-104.85Q242.14-101.15 238.07-99.65Q234.01-98.14 228.88-100.34L228.88-100.34Q226.68-103.56 222.18-108.11Q217.68-112.65 211.41-117.48Q205.15-122.31 197.53-126.42L197.53-126.42ZM157.18-63.28L155.86-67.53L183.33-67.53L193.36-77.86L211.23-63.13Q210.50-61.89 209.40-61.34Q208.30-60.79 205.81-60.57L205.81-60.57Q202.59-47.90 196.22-36.29Q189.84-24.68 179.41-15.12Q168.97-5.57 153.59 0.88L153.59 0.88L152.56-0.73Q162.01-8.28 168.42-18.31Q174.83-28.34 178.67-39.84Q182.52-51.34 184.35-63.28L184.35-63.28L157.18-63.28ZM266.82-94.04L266.82-94.04L290.70-78.15Q290.11-77.05 288.83-76.46Q287.55-75.88 284.84-76.32L284.84-76.32Q277.73-71.48 268.10-65.88Q258.47-60.28 248.22-55.66L248.22-55.66Q254.52-46.22 262.50-39.70Q270.48-33.18 279.24-28.93Q287.99-24.68 296.70-21.90L296.70-21.90L296.12-20.43Q289.45-18.68 284.88-13.15Q280.30-7.62 278.39 0.15L278.39 0.15Q267.26-7.91 259.02-18.02Q250.78-28.13 245.14-42.59Q239.50-57.06 236.13-78.15L236.13-78.15L236.13-10.03Q236.13-2.93 234.23 2.12Q232.32 7.18 226.43 10.18Q220.53 13.18 208.37 14.28L208.37 14.28Q207.93 8.94 207.02 5.05Q206.10 1.17 203.98-1.17L203.98-1.17Q201.86-3.66 198.74-5.46Q195.63-7.25 188.96-8.42L188.96-8.42L188.96-10.33Q188.96-10.33 191.78-10.18Q194.60-10.03 198.52-9.81Q202.44-9.59 205.96-9.45Q209.47-9.30 210.86-9.30L210.86-9.30Q214.01-9.30 214.01-12.45L214.01-12.45L214.01-88.04L180.03-88.04L178.64-92.29L212.55-92.29L222.00-102.76L241.19-87.89Q240.53-87.08 239.32-86.28Q238.11-85.47 236.13-85.03L236.13-85.03L236.13-84.59Q237.82-77.27 240.34-70.97Q242.87-64.67 246.02-59.40L246.02-59.40Q250.12-64.89 254.15-71.23Q258.18-77.56 261.51-83.57Q264.84-89.58 266.82-94.04ZM319.19-36.77L321.31-37.21Q327.25-31.64 329.66-26.44Q332.08-21.24 332.01-17.03Q331.93-12.82 330.14-10.33Q328.34-7.84 325.78-7.69Q323.22-7.54 320.87-10.47L320.87-10.47Q321.75-16.77 321.09-24.06Q320.43-31.35 319.19-36.77L319.19-36.77ZM328.20-39.33L330.18-40.06Q337.28-35.82 340.69-31.42Q344.09-27.03 344.71-23.25Q345.34-19.48 343.98-17.03Q342.63-14.58 340.21-14.17Q337.79-13.77 335.23-16.19L335.23-16.19Q335.01-21.83 332.78-28.27Q330.54-34.72 328.20-39.33L328.20-39.33ZM311.28-35.52L311.28-35.52L313.18-35.52Q317.50-24.54 317.83-17.43Q318.16-10.33 316.19-6.59Q314.21-2.86 311.28-1.94Q308.35-1.03 305.90-2.42Q303.44-3.81 302.93-6.99Q302.42-10.18 305.42-14.58L305.42-14.58Q307.98-17.94 309.56-23.66Q311.13-29.37 311.28-35.52ZM336.62-42.33L338.09-43.51Q343.95-42.63 347.64-40.83Q351.34-39.04 353.39-36.91L353.39-36.91L354.27-48.49L328.49-48.49L328.49-43.95Q328.49-43.07 324.87-41.02Q321.24-38.96 314.87-38.96L314.87-38.96L311.87-38.96L311.87-122.68L330.47-115.65L350.98-115.65L359.55-126.78Q359.55-126.78 362.26-124.66Q364.97-122.53 368.66-119.53Q372.36-116.53 375.29-113.82L375.29-113.82Q374.63-111.47 371.26-111.47L371.26-111.47L351.64-111.47L351.64-94.78L352.51-94.78L359.69-104.52Q359.69-104.52 362.73-101.99Q365.77-99.46 368.99-96.46L368.99-96.46L366.58-105.32L385.18-105.03Q386.65-110.74 387.82-117.04Q388.99-123.34 389.72-128.39L389.72-128.39L415.80-123.12Q415.43-121.66 414.15-120.74Q412.87-119.82 410.23-119.82L410.23-119.82Q407.30-116.60 403.05-112.65Q398.80-108.69 394.19-105.03L394.19-105.03L421.51-105.18Q417.77-111.18 413.53-115.65L413.53-115.65L414.77-116.53Q425.90-115.36 432.50-112.17Q439.09-108.98 441.91-104.92Q444.73-100.85 444.58-96.94Q444.43-93.02 442.05-90.31Q439.67-87.60 435.90-87.12Q432.13-86.65 427.81-89.58L427.81-89.58Q427.22-92.14 426.31-94.89Q425.39-97.63 424.07-100.20L424.07-100.20Q416.75-98.07 407.41-95.65Q398.07-93.24 386.43-90.31L386.43-90.31L404.74-83.28Q404.15-81.88 402.65-81.12Q401.15-80.35 398.73-80.57L398.73-80.57Q393.16-70.90 385.91-64.20Q378.66-57.50 370.17-53.25L370.17-53.25L375.88-48.49Q374.19-46.51 369.73-45.92L369.73-45.92Q369.07-36.11 368.23-28.42Q367.38-20.73 366.14-14.87L366.14-14.87Q373.10-23.14 378.96-35.60Q384.81-48.05 387.74-62.26L387.74-62.26L411.18-55.08Q410.67-53.61 409.28-52.70Q407.89-51.78 405.32-51.93L405.32-51.93Q404.30-49.88 403.27-48.05Q402.25-46.22 401.22-44.38L401.22-44.38L413.82-44.38L424.37-54.27L441.43-39.48Q440.19-37.43 435.57-37.06L435.57-37.06Q429.20-23.07 418.80-12.89L418.80-12.89Q424.88-10.40 432.39-8.83Q439.89-7.25 448.83-6.45L448.83-6.45L448.68-4.83Q442.90-2.34 440.04 2.38Q437.18 7.10 436.52 14.58L436.52 14.58Q426.12 11.94 418.84 7.58Q411.55 3.22 406.35-3.00L406.35-3.00Q387.74 9.30 358.96 13.92L358.96 13.92L358.23 12.01Q384.30 3.08 399.32-13.92L399.32-13.92Q397.19-18.02 395.54-22.60Q393.90-27.17 392.43-32.23L392.43-32.23Q386.87-25.85 380.53-21.06Q374.19-16.26 367.38-12.89L367.38-12.89L365.99-13.92Q364.09-4.83 361.45 0.51Q358.81 5.86 355.37 8.57L355.37 8.57Q351.86 11.28 347.64 12.45Q343.43 13.62 338.38 13.62L338.38 13.62Q338.53 10.25 338.12 7.51Q337.72 4.76 336.47 3.15L336.47 3.15Q334.06-0.15 327.76-1.68L327.76-1.68L327.91-3.74Q330.62-3.52 334.31-3.33Q338.01-3.15 340.06-3.15L340.06-3.15Q343.14-3.15 344.82-4.61L344.82-4.61Q346.88-6.23 348.67-11.28Q350.46-16.33 351.93-25.34L351.93-25.34Q349.73-24.90 347.09-26.37L347.09-26.37Q346.22-30.54 343.10-35.08Q339.99-39.62 336.62-42.33L336.62-42.33ZM383.28-89.58L383.28-89.58L376.98-88.04Q375.15-85.18 372.14-84.89L372.14-84.89L370.53-90.89Q369.58-90.60 368.70-90.60L368.70-90.60L351.64-90.60L351.64-73.54L352.51-73.54L359.69-83.28Q359.69-83.28 361.93-81.37Q364.16-79.47 367.16-76.79Q370.17-74.12 372.58-71.70L372.58-71.70Q372.14-69.29 368.70-69.29L368.70-69.29L351.64-69.29L351.64-52.66L352.95-52.66L361.23-60.72L366.43-56.25Q371.85-62.55 376.25-71.08Q380.64-79.61 383.28-89.58ZM404.74-69.43L404.74-91.77L425.10-90.16Q424.88-87.01 420.92-86.57L420.92-86.57L420.92-72.73Q420.92-71.70 421.33-71.34Q421.73-70.97 423.27-70.97L423.27-70.97L428.25-70.97Q429.71-70.97 430.88-70.97Q432.06-70.97 432.71-70.97L432.71-70.97Q434.33-70.97 435.28-72.29L435.28-72.29Q436.23-73.68 437.62-77.27Q439.01-80.86 440.84-85.77L440.84-85.77L442.53-85.77L442.82-72.00Q445.75-70.68 446.59-69.18Q447.44-67.68 447.44-65.55L447.44-65.55Q447.44-60.94 442.64-58.74Q437.84-56.54 426.42-56.54L426.42-56.54L418.07-56.54Q412.13-56.54 409.28-57.75Q406.42-58.96 405.58-61.78Q404.74-64.60 404.74-69.43L404.74-69.43ZM414.33-40.21L414.33-40.21L398.58-40.21L394.48-34.79Q398.22-26.95 404.88-21.02L404.88-21.02Q410.89-29.74 414.33-40.21ZM335.52-111.47L328.49-111.47L328.49-94.78L335.52-94.78L335.52-111.47ZM335.52-90.60L328.49-90.60L328.49-73.54L335.52-73.54L335.52-90.60ZM335.52-69.29L328.49-69.29L328.49-52.66L335.52-52.66L335.52-69.29Z"/>
    </svg>
        