<svg width="296" height="296" version="1.1" xmlns="http://www.w3.org/2000/svg" xmlns:xlink="http://www.w3.org/1999/xlink"><path d="M110.11 24.27L110.11 24.27L112.18 22.79Q139.42 22.79 147.70 34.63L147.70 34.63Q150.07 37.89 150.37 41.74L150.37 41.74Q151.55 54.76 142.08 53.28L142.08 53.28Q131.42 51.50 116.92 37.30L116.92 37.30Q112.78 33.15 111.59 30.78L111.59 30.78Q110.11 28.42 110.11 24.27ZM258.11 212.53L260.48 215.19L259.89 216.08Q250.42 220.22 217.26 222.59L217.26 222.59L210.16 223.18Q191.22 211.64 150.66 156.58L150.66 156.58Q143.26 146.52 138.23 138.82L138.23 138.82L138.23 215.78L138.82 237.10Q138.23 243.90 135.57 249.82L135.57 249.82Q129.65 261.66 123.73 265.81L123.73 265.81Q117.22 264.92 108.04 253.38L108.04 253.38Q102.71 246.86 100.34 244.79L100.34 244.79Q91.46 236.80 88.50 232.36L88.50 232.36Q90.87 232.36 107.45 235.02L107.45 235.02Q111.89 235.91 115.44 235.91L115.44 235.91L118.40 230.88Q123.43 186.78 122.25 115.44L122.25 115.44Q121.95 108.34 121.95 97.98L121.95 97.98Q120.77 94.13 118.99 93.24L118.99 93.24Q118.40 93.24 90.58 98.86L90.58 98.86Q81.70 100.94 79.03 100.94L79.03 100.94Q74 97.98 72.82 95.02L72.82 95.02Q95.90 89.39 98.57 88.50L98.57 88.50Q102.71 87.02 106.26 85.25L106.26 85.25L113.66 80.51L113.96 80.22Q120.47 77.26 133.79 83.77L133.79 83.77Q143.86 88.50 143.86 93.54L143.86 93.54Q143.86 94.72 140.90 100.34L140.90 100.34L140.01 102.42Q137.64 110.11 137.64 126.39L137.64 126.39L148 137.94L174.05 111.30Q184.41 99.75 188.55 89.39L188.55 89.39Q187.37 75.18 206.02 89.10L206.02 89.10Q209.57 91.76 214.30 95.90L214.30 95.90Q215.49 98.57 215.19 100.94L215.19 100.94Q214.90 101.82 214.60 102.42L214.60 102.42L170.79 129.65L154.51 139.42Q152.74 140.90 151.26 142.08L151.26 142.08Q184.70 173.75 198.02 182.93L198.02 182.93Q213.42 193.58 255.74 211.64L255.74 211.64L258.11 212.53ZM108.04 142.97L108.04 142.97Q107.74 145.63 102.42 150.66L102.42 150.66Q100.64 152.44 99.75 153.62L99.75 153.62L90.87 169.31L90.58 169.61Q65.42 208.98 33.15 224.96L33.15 224.96Q18.65 232.06 11.84 231.77L11.84 231.77L11.84 229.99Q48.54 208.38 71.93 168.13L71.93 168.13Q77.26 159.25 81.10 150.07L81.10 150.07Q81.10 148 79.33 147.11L79.33 147.11Q72.82 147.11 54.17 153.03L54.17 153.03Q35.22 159.25 25.16 153.33L25.16 153.33Q21.90 151.55 18.94 148.89L18.94 148.89Q18.94 146.22 22.20 145.63L22.20 145.63L71.93 137.05Q79.62 135.57 86.43 133.20L86.43 133.20Q99.16 133.50 108.04 142.97Z" stroke="#000" fill="black" /></svg>