<svg width="296" height="296" version="1.1" xmlns="http://www.w3.org/2000/svg" xmlns:xlink="http://www.w3.org/1999/xlink"><path d="M229.99 109.34L229.99 109.34Q225.55 109.34 221.41 102.53L221.41 102.53Q220.52 100.76 219.93 100.17L219.93 100.17Q170.79 106.68 143.56 114.08L143.56 114.08Q140.01 112.60 139.71 115.85L139.71 115.85Q139.71 119.11 138.23 119.11L138.23 119.11Q133.79 119.11 123.43 94.25L123.43 94.25Q122.25 90.99 121.66 90.10L121.66 90.10Q117.22 82.70 117.22 80.63L117.22 80.63Q117.22 78.85 117.81 78.26L117.81 78.26Q125.50 78.26 129.65 79.45L129.65 79.45L153.03 75.30Q151.85 61.98 147.11 53.99L147.11 53.99L133.20 50.73Q131.13 49.55 129.94 48.07L129.94 48.07L131.72 46.29Q154.22 44.22 186.48 35.93L186.48 35.93L209.86 29.72Q211.05 29.42 211.94 29.13L211.94 29.13Q216.08 28.53 220.82 30.90L220.82 30.90Q223.18 32.38 224.66 33.86L224.66 33.86Q224.66 35.93 220.82 38.01L220.82 38.01Q219.93 38.30 219.34 38.89L219.34 38.89L197.14 44.22Q196.54 44.22 195.95 44.52L195.95 44.52L204.54 49.55L206.61 51.92L207.20 54.58Q206.90 55.77 204.24 63.76L204.24 63.76Q208.98 63.76 223.18 59.32L223.18 59.32Q236.21 55.47 245.09 62.87L245.09 62.87L246.86 64.65Q253.97 71.45 253.08 73.53L253.08 73.53L246.86 80.63L245.98 82.11L236.80 101.94Q233.84 106.38 229.99 109.34ZM232.36 71.75L232.36 71.75L231.47 70.57Q222.30 67.31 209.86 70.27L209.86 70.27Q206.31 70.86 202.76 72.05L202.76 72.05L198.62 93.36L213.12 90.40Q219.93 90.10 224.07 94.25L224.07 94.25Q230.88 84.77 232.36 71.75ZM190.03 66.13L190.03 66.13Q190.03 51.62 186.48 46.59L186.48 46.59L158.06 51.92L157.77 52.21Q164.87 53.99 165.17 62.87L165.17 62.87Q165.17 70.27 165.76 72.05L165.76 72.05L186.78 67.61Q188.55 67.01 190.03 66.13ZM188.55 96.02L190.03 74.71Q183.22 75.60 166.65 80.04L166.65 80.04L168.42 101.05Q185.30 96.61 188.55 96.02L188.55 96.02ZM157.18 103.42L158.06 102.53L154.81 82.70L135.86 87.73Q134.98 88.03 134.38 88.33L134.38 88.33L138.82 106.68Q143.26 105.49 157.18 103.42L157.18 103.42ZM87.91 56.06L87.91 56.06Q92.06 73.82 82.58 70.86Q73.11 67.90 58.02 51.62L58.02 51.62Q55.94 49.55 55.94 48.96L55.94 48.96Q54.46 47.18 56.54 43.93L56.54 43.93Q74 46.59 77.85 48.37L77.85 48.37Q84.36 51.03 87.91 56.06ZM262.85 200.21L262.85 200.21Q262.85 203.47 259.59 204.36L259.59 204.36Q211.94 204.95 188.26 207.32L188.26 207.32Q186.48 213.24 187.07 246.39L187.07 246.39Q187.66 279.84 181.45 285.76L181.45 285.76Q178.19 285.76 177.30 283.09L177.30 283.09Q173.75 274.51 172.86 217.38L172.86 217.38Q172.57 212.65 172.57 209.98L172.57 209.98Q166.06 210.28 143.56 215.31L143.56 215.31Q133.20 217.68 126.10 217.97L126.10 217.97Q120.47 218.27 115.44 214.72L115.44 214.72Q112.48 212.94 110.70 210.28L110.70 210.28Q110.70 208.50 113.37 207.91L113.37 207.91Q113.66 207.91 128.76 205.84L128.76 205.84Q129.35 205.54 129.94 205.54L129.94 205.54L171.68 199.62Q171.09 182.75 166.94 175.65L166.94 175.65L155.70 177.13L155.40 177.13L153.62 181.86Q152.74 182.75 151.26 182.75L151.26 182.75Q145.63 179.20 142.67 165.88L142.67 165.88Q141.78 161.14 141.19 159.07L141.19 159.07L130.24 128.88Q134.38 127.40 140.90 129.47L140.90 129.47Q142.08 130.06 142.67 129.77L142.67 129.77L211.94 115.26Q217.56 114.08 229.40 121.77L229.40 121.77Q232.36 123.85 233.84 124.73L233.84 124.73Q236.80 128.29 231.77 133.91L231.77 133.91L228.81 138.05Q228.51 138.94 223.78 159.66L223.78 159.66Q219.34 179.79 213.71 179.79L213.71 179.79Q211.94 179.20 206.31 172.69L206.31 172.69Q200.98 166.47 195.36 169.73L195.36 169.73Q185.30 171.21 176.71 173.57L176.71 173.57Q187.66 178.01 190.03 182.75L190.03 182.75L188.26 196.66Q195.36 196.96 218.15 191.63L218.15 191.63Q242.72 185.71 253.97 192.22L253.97 192.22Q259 195.18 262.85 200.21ZM212.82 131.54L212.82 131.54L211.05 127.40Q203.35 123.25 151.85 135.39L151.85 135.39L148.59 136.28L150.66 150.78Q189.14 136.57 196.84 145.75L196.84 145.75Q196.84 148.12 195.95 149.01L195.95 149.01Q171.09 152.85 152.14 157.29L152.14 157.29Q154.51 169.43 154.51 169.73L154.51 169.73L190.62 160.55Q194.77 159.96 197.73 159.96L197.73 159.96Q203.94 159.96 207.20 164.10L207.20 164.10Q209.57 157.89 211.94 136.87L211.94 136.87Q212.53 133.91 212.82 131.54ZM108.34 91.88L108.34 91.88Q108.34 94.84 105.67 95.73L105.67 95.73Q101.82 97.21 80.22 101.35L80.22 101.35Q75.78 101.94 72.52 102.83L72.52 102.83Q70.45 103.42 39.96 113.19L39.96 113.19Q36.41 114.37 33.15 114.97L33.15 114.97Q26.94 116.45 19.83 115.26L19.83 115.26Q10.06 113.49 9.47 107.57L9.47 107.57L10.06 106.09L12.73 104.61Q30.78 102.24 67.78 92.77L67.78 92.77L90.28 86.55Q92.06 86.25 93.54 86.25L93.54 86.25Q97.98 85.66 102.71 87.44L102.71 87.44Q106.86 89.21 108.34 91.88ZM92.94 121.18L92.94 121.18Q92.94 123.85 89.69 125.03L89.69 125.03Q60.68 135.09 48.54 131.84L48.54 131.84Q46.77 131.54 44.99 130.65L44.99 130.65Q44.99 127.99 50.62 126.51L50.62 126.51L72.52 119.70Q89.10 115.56 92.94 121.18ZM92.94 147.23L92.94 147.23Q92.94 153.15 68.38 157.29L68.38 157.29Q54.17 159.96 49.14 158.77L49.14 158.77L45.58 156.70Q44.99 155.81 44.99 154.93L44.99 154.93Q60.38 149.30 80.81 144.27L80.81 144.27Q83.47 143.68 84.36 143.68L84.36 143.68Q89.10 143.68 92.94 147.23ZM92.35 210.87L92.35 210.87L97.09 213.83L97.68 214.42Q97.68 217.38 93.54 217.97L93.54 217.97Q76.37 220.34 57.72 226.85L57.72 226.85Q57.72 236.03 55.94 236.92L55.94 236.92Q48.84 233.07 44.70 218.27L44.70 218.27Q42.92 210.87 41.74 208.21L41.74 208.21Q35.52 192.81 32.26 187.19L32.26 187.19Q32.86 185.12 35.22 184.53L35.22 184.53Q46.47 189.26 70.45 178.01L70.45 178.01Q82.58 172.39 85.25 172.39L85.25 172.39Q89.39 172.39 100.34 179.49L100.34 179.49Q101.82 180.38 102.42 180.97L102.42 180.97Q103.60 182.16 103.60 184.53L103.60 184.53Q103.60 186.60 98.86 192.81L98.86 192.81Q97.68 194.89 97.09 196.07L97.09 196.07Q94.13 203.17 92.35 210.87ZM81.99 188.67L81.99 188.67Q79.33 182.45 53.87 192.22L53.87 192.22Q51.80 192.81 50.91 193.11L50.91 193.11Q56.24 215.01 57.13 217.97L57.13 217.97Q68.08 215.01 78.74 209.98L78.74 209.98Q80.51 202.88 81.99 188.67Z" stroke="#000" fill="black" /></svg>