<svg width="296" height="296" version="1.1" xmlns="http://www.w3.org/2000/svg" xmlns:xlink="http://www.w3.org/1999/xlink"><path d="M235.62 82.88L235.62 82.88Q230.88 82.58 222.89 74.30L222.89 74.30Q222 73.11 221.41 72.52L221.41 72.52L178.78 84.06Q160.14 90.28 147.41 98.57L147.41 98.57Q141.49 97.38 137.05 91.17L137.05 91.17Q133.20 85.84 136.16 82.29L136.16 82.29Q136.75 81.70 145.04 75.48L145.04 75.48Q146.82 74.00 148 73.11L148 73.11Q166.65 56.54 173.46 32.86L173.46 32.86Q173.75 31.67 173.16 22.20L173.16 22.20Q172.57 15.98 175.53 14.50L175.53 14.50Q187.37 15.69 197.14 25.46L197.14 25.46L196.84 29.30Q180.26 48.25 161.02 75.78L161.02 75.78Q161.02 78.14 162.21 78.14L162.21 78.14Q164.28 78.14 177.60 74.59L177.60 74.59L179.38 74.00Q198.02 69.26 215.19 66.60L215.19 66.60L207.20 57.42Q205.72 55.06 205.72 51.80L205.72 51.80Q213.42 49.43 227.33 58.61L227.33 58.61Q238.28 66.01 238.87 72.52L238.87 72.52L238.58 78.74L236.80 81.99Q236.50 82.29 235.62 82.88ZM234.43 109.22L237.10 113.66L237.69 122.84Q237.10 125.21 234.73 126.69L234.73 126.69Q226.74 126.69 207.50 106.86L207.50 106.86Q201.87 100.94 199.50 97.68L199.50 97.68Q199.50 94.13 201.28 93.54L201.28 93.54Q222 98.57 229.10 103.90L229.10 103.90Q232.36 106.26 234.43 109.22L234.43 109.22ZM169.02 109.82L169.02 109.82L168.42 112.78Q154.81 128.46 150.66 132.02L150.66 132.02Q142.97 138.53 135.27 140.30L135.27 140.30L133.79 140.01Q147.11 124.32 150.07 115.44L150.07 115.44Q152.14 109.52 152.14 103.01L152.14 103.01Q158.36 100.64 164.87 105.67L164.87 105.67Q167.24 107.45 169.02 109.82ZM261.96 234.14L261.96 234.14Q261.07 240.06 226.44 241.54L226.44 241.54Q223.78 241.83 222.30 241.83L222.30 241.83Q214.30 236.50 201.28 220.22L201.28 220.22Q196.84 214.60 193.88 211.34L193.88 211.34Q175.53 232.06 136.16 234.73L136.16 234.73Q133.20 235.02 130.24 235.02L130.24 235.02Q126.10 235.02 124.32 233.84L124.32 233.84L124.32 232.95Q155.10 222.30 158.36 221.11L158.36 221.11Q175.82 213.42 185.89 202.17L185.89 202.17L169.61 180.26Q163.69 173.46 157.18 169.90L157.18 169.90Q143.56 184.70 137.34 188.85L137.34 188.85Q129.65 194.18 121.95 195.06L121.95 195.06L145.34 166.65Q159.84 146.82 161.91 129.35L161.91 129.35Q168.72 127.28 177.01 130.24L177.01 130.24Q178.49 130.54 180.26 131.42L180.26 131.42Q180.26 135.57 174.64 144.15L174.64 144.15L172.86 147.11Q189.44 145.93 203.65 139.12L203.65 139.12Q218.15 139.12 227.33 149.48L227.33 149.48Q227.33 151.85 223.18 156.29L223.18 156.29Q222 157.47 221.70 158.66L221.70 158.66Q219.34 162.50 210.46 183.82L210.46 183.82Q206.31 193.88 201.87 200.10L201.87 200.10Q224.07 219.34 261.96 234.14ZM200.98 150.37L200.98 150.37Q181.74 154.81 171.09 153.03L171.09 153.03Q170.50 152.74 169.90 152.74L169.90 152.74L160.73 165.17Q164.87 165.17 167.24 166.06L167.24 166.06L192.70 192.40Q203.35 171.68 204.54 158.66L204.54 158.66Q205.13 151.26 200.98 150.37ZM130.24 136.75L130.24 136.75Q130.24 139.71 126.69 145.63L126.69 145.63Q125.80 147.41 125.21 148.89L125.21 148.89Q122.25 159.84 117.81 194.77L117.81 194.77Q116.92 200.69 116.33 205.13L116.33 205.13Q112.48 230.88 94.72 237.98L94.72 237.98L92.35 237.69Q89.98 233.84 77.55 219.34L77.55 219.34Q74 214.90 71.93 211.64L71.93 211.64L95.61 214.01Q106.56 198.62 109.22 157.18L109.22 157.18L110.11 147.11L109.82 141.19Q108.93 138.53 106.56 137.64L106.56 137.64Q98.86 135.27 68.38 143.26L68.38 143.26L59.20 145.93L50.91 150.37Q50.02 150.37 49.43 150.37L49.43 150.37Q45.29 150.37 42.03 146.22L42.03 146.22Q41.44 145.04 41.14 144.45L41.14 144.45Q40.55 142.08 44.10 126.10L44.10 126.10Q44.99 121.66 44.99 119.58L44.99 119.58L47.36 57.42Q47.66 51.80 44.70 42.92L44.70 42.92Q43.51 39.07 42.03 36.41L42.03 36.41Q45.58 32.26 54.46 37.30L54.46 37.30Q57.13 38.78 58.31 39.07L58.31 39.07Q60.98 43.51 96.79 31.97L96.79 31.97Q108.34 28.12 111 27.82L111 27.82Q116.03 26.94 121.95 28.71L121.95 28.71Q125.80 29.90 128.17 31.97L128.17 31.97Q128.17 34.34 124.02 37.30L124.02 37.30Q118.70 38.18 92.94 44.99L92.94 44.99Q99.75 48.54 98.27 61.86L98.27 61.86L98.27 63.94Q119.58 60.09 119.29 68.08L119.29 68.08Q117.51 68.97 101.53 74.00L101.53 74.00L98.27 74.89L97.09 93.54Q107.74 89.69 115.74 92.65L115.74 92.65Q118.40 93.54 119.88 95.31L119.88 95.31Q119.29 100.05 97.98 103.60L97.98 103.60L96.50 106.26L96.50 128.76L112.18 125.50L114.55 125.21Q123.43 129.65 130.24 136.75ZM85.54 130.54L85.54 130.54L85.54 107.15Q70.74 107.15 66.01 102.12L66.01 102.12Q68.97 99.46 79.33 98.27L79.33 98.27Q83.18 97.98 85.54 97.09L85.54 97.09L85.54 79.03Q76.66 80.22 71.63 78.44L71.63 78.44L66.90 76.07L65.71 74.89L67.78 73.11L85.54 68.97Q84.06 53.58 83.18 50.32L83.18 50.32Q82.58 48.84 81.99 47.66L81.99 47.66Q78.44 48.25 63.05 47.66L63.05 47.66Q58.31 70.74 57.13 118.10L57.13 118.10L56.83 132.02Q57.42 134.98 62.46 135.57L62.46 135.57Q74 132.31 85.54 130.54ZM94.72 170.79L94.72 170.79Q94.72 179.08 90.87 182.34L90.87 182.34Q86.73 182.34 85.25 179.38L85.25 179.38Q76.37 164.28 76.07 157.47L76.07 157.47L76.96 155.99L89.10 163.98Q92.94 166.94 94.72 170.79ZM71.34 187.37L71.34 187.37Q70.15 188.26 67.19 188.26L67.19 188.26Q63.05 183.22 57.42 166.65L57.42 166.65Q57.13 165.46 56.83 164.58L56.83 164.58Q57.42 162.50 59.50 162.50L59.50 162.50L68.97 172.86Q75.18 180.56 71.34 187.37ZM43.51 197.43L43.51 197.43Q39.66 191.81 37.89 175.82L37.89 175.82Q37.59 171.68 37.30 169.31L37.30 169.31Q37.59 166.94 39.37 166.65L39.37 166.65Q51.80 179.38 50.32 190.92L50.32 190.92Q50.02 192.99 49.14 195.06L49.14 195.06Q47.36 198.62 43.51 197.43ZM22.50 166.35L23.98 169.02Q28.71 191.22 25.46 200.98L25.46 200.98Q23.68 206.31 19.54 209.86L19.54 209.86Q13.62 209.86 10.36 199.80L10.36 199.80L15.98 163.39Q19.54 160.43 22.50 166.35L22.50 166.35Z" stroke="#000" fill="black" /></svg>